<mxfile host="app.diagrams.net" modified="2021-09-15T19:04:13.393Z" agent="5.0 (Windows NT 10.0; Win64; x64) AppleWebKit/537.36 (KHTML, like Gecko) Chrome/93.0.4577.63 Safari/537.36" etag="2_-cAuRZq7SOkp5rQ_Yi" version="15.2.7" type="github">
  <diagram id="9olcIlqZ1RmMN9aZ8Z8O" name="Page-1">
    <mxGraphModel dx="1741" dy="1589" grid="1" gridSize="10" guides="1" tooltips="1" connect="1" arrows="1" fold="1" page="1" pageScale="1" pageWidth="1169" pageHeight="827" math="0" shadow="0">
      <root>
        <mxCell id="0" />
        <mxCell id="1" parent="0" />
        <mxCell id="Tf76bZqq08zZNXclO3FD-5" value="" style="rounded=1;arcSize=10;dashed=1;strokeColor=#ff0000;fillColor=none;gradientColor=none;dashPattern=8 4;strokeWidth=2;" parent="1" vertex="1">
          <mxGeometry x="815.25" y="350.75" width="199.5" height="199.5" as="geometry" />
        </mxCell>
        <mxCell id="Tf76bZqq08zZNXclO3FD-1" value="User" style="sketch=0;outlineConnect=0;gradientColor=none;fontColor=#545B64;strokeColor=none;fillColor=#879196;dashed=0;verticalLabelPosition=bottom;verticalAlign=top;align=center;html=1;fontSize=12;fontStyle=0;aspect=fixed;shape=mxgraph.aws4.illustration_users;pointerEvents=1" parent="1" vertex="1">
          <mxGeometry x="30" y="389" width="50" height="50" as="geometry" />
        </mxCell>
        <mxCell id="Tf76bZqq08zZNXclO3FD-3" value="VPC" style="points=[[0,0],[0.25,0],[0.5,0],[0.75,0],[1,0],[1,0.25],[1,0.5],[1,0.75],[1,1],[0.75,1],[0.5,1],[0.25,1],[0,1],[0,0.75],[0,0.5],[0,0.25]];outlineConnect=0;gradientColor=none;html=1;whiteSpace=wrap;fontSize=12;fontStyle=0;shape=mxgraph.aws4.group;grIcon=mxgraph.aws4.group_vpc;strokeColor=#248814;fillColor=none;verticalAlign=top;align=left;spacingLeft=30;fontColor=#AAB7B8;dashed=0;" parent="1" vertex="1">
          <mxGeometry x="530" y="239" width="590" height="350" as="geometry" />
        </mxCell>
        <mxCell id="Tf76bZqq08zZNXclO3FD-4" value="" style="outlineConnect=0;dashed=0;verticalLabelPosition=bottom;verticalAlign=top;align=center;html=1;shape=mxgraph.aws3.rds;fillColor=#2E73B8;gradientColor=none;" parent="1" vertex="1">
          <mxGeometry x="870" y="400" width="72" height="81" as="geometry" />
        </mxCell>
        <mxCell id="p7vuBcGmGDKVdwuhQpX5-2" value="Create synchronous key" style="outlineConnect=0;dashed=0;verticalLabelPosition=bottom;verticalAlign=top;align=center;html=1;shape=mxgraph.aws3.kms;fillColor=#759C3E;gradientColor=none;" vertex="1" parent="1">
          <mxGeometry x="230" y="270" width="76.5" height="93" as="geometry" />
        </mxCell>
        <mxCell id="p7vuBcGmGDKVdwuhQpX5-4" value="Create security group&lt;br&gt;for MySQL database" style="sketch=0;aspect=fixed;html=1;points=[];align=center;image;fontSize=12;image=img/lib/mscae/Network_Security_Groups_Classic.svg;" vertex="1" parent="1">
          <mxGeometry x="240" y="414" width="77" height="104.05" as="geometry" />
        </mxCell>
        <mxCell id="p7vuBcGmGDKVdwuhQpX5-7" value="" style="edgeStyle=orthogonalEdgeStyle;html=1;endArrow=block;elbow=vertical;startArrow=none;endFill=1;strokeColor=#545B64;rounded=0;" edge="1" parent="1" target="p7vuBcGmGDKVdwuhQpX5-2">
          <mxGeometry width="100" relative="1" as="geometry">
            <mxPoint x="80" y="413.97" as="sourcePoint" />
            <mxPoint x="200" y="340" as="targetPoint" />
            <Array as="points">
              <mxPoint x="130" y="414" />
              <mxPoint x="130" y="384" />
              <mxPoint x="180" y="384" />
              <mxPoint x="180" y="340" />
            </Array>
          </mxGeometry>
        </mxCell>
        <mxCell id="p7vuBcGmGDKVdwuhQpX5-9" value="Step 1" style="edgeLabel;html=1;align=center;verticalAlign=middle;resizable=0;points=[];" vertex="1" connectable="0" parent="p7vuBcGmGDKVdwuhQpX5-7">
          <mxGeometry x="0.2584" y="1" relative="1" as="geometry">
            <mxPoint as="offset" />
          </mxGeometry>
        </mxCell>
        <mxCell id="p7vuBcGmGDKVdwuhQpX5-12" value="" style="edgeStyle=orthogonalEdgeStyle;html=1;endArrow=block;elbow=vertical;startArrow=none;endFill=1;strokeColor=#545B64;rounded=0;entryX=-0.031;entryY=0.693;entryDx=0;entryDy=0;entryPerimeter=0;" edge="1" parent="1" target="p7vuBcGmGDKVdwuhQpX5-4">
          <mxGeometry width="100" relative="1" as="geometry">
            <mxPoint x="80" y="414" as="sourcePoint" />
            <mxPoint x="130" y="480" as="targetPoint" />
            <Array as="points">
              <mxPoint x="130" y="414" />
              <mxPoint x="130" y="440" />
              <mxPoint x="180" y="440" />
              <mxPoint x="180" y="486" />
            </Array>
          </mxGeometry>
        </mxCell>
        <mxCell id="p7vuBcGmGDKVdwuhQpX5-13" value="Step 2" style="edgeLabel;html=1;align=center;verticalAlign=middle;resizable=0;points=[];" vertex="1" connectable="0" parent="p7vuBcGmGDKVdwuhQpX5-12">
          <mxGeometry x="0.1791" relative="1" as="geometry">
            <mxPoint as="offset" />
          </mxGeometry>
        </mxCell>
        <mxCell id="p7vuBcGmGDKVdwuhQpX5-14" value="" style="edgeStyle=orthogonalEdgeStyle;html=1;endArrow=block;elbow=vertical;startArrow=none;endFill=1;strokeColor=#545B64;rounded=0;" edge="1" parent="1">
          <mxGeometry width="100" relative="1" as="geometry">
            <mxPoint x="317" y="400" as="sourcePoint" />
            <mxPoint x="527" y="400" as="targetPoint" />
          </mxGeometry>
        </mxCell>
        <mxCell id="p7vuBcGmGDKVdwuhQpX5-15" value="Create RDS database" style="edgeLabel;html=1;align=center;verticalAlign=middle;resizable=0;points=[];labelPosition=center;verticalLabelPosition=middle;" vertex="1" connectable="0" parent="p7vuBcGmGDKVdwuhQpX5-14">
          <mxGeometry x="0.1662" relative="1" as="geometry">
            <mxPoint as="offset" />
          </mxGeometry>
        </mxCell>
      </root>
    </mxGraphModel>
  </diagram>
</mxfile>
